<svg version="1.0" xmlns="http://www.w3.org/2000/svg" width="449px" height="406px" viewBox="0 0 4490 4060" preserveAspectRatio="xMidYMid meet">
<g id="layer101" fill="#18a0b5" stroke="none">
 <path d="M213 4026 c-61 -15 -156 -62 -179 -87 -15 -17 -15 -20 6 -49 13 -18 26 -27 33 -23 7 4 30 19 52 34 78 52 208 73 297 49 52 -15 88 -61 88 -114 0 -69 -40 -100 -177 -136 -238 -64 -283 -99 -283 -219 1 -133 103 -211 275 -211 90 0 141 14 204 55 40 27 40 28 26 55 -22 42 -32 44 -66 16 -39 -33 -98 -50 -179 -50 -111 -1 -170 44 -170 129 0 74 27 93 195 137 208 54 265 100 265 210 0 96 -40 158 -124 193 -52 22 -197 28 -263 11z"/>
 <path d="M1595 4023 c-48 -25 -73 -53 -91 -99 -47 -122 53 -225 219 -226 40 0 94 3 120 7 l48 7 -7 -43 c-11 -69 -31 -99 -81 -121 -56 -24 -111 -19 -190 20 -54 26 -55 27 -69 8 -24 -34 -16 -46 51 -77 118 -56 232 -49 306 18 57 51 69 103 69 290 0 95 4 153 10 153 15 0 12 70 -2 71 -50 5 -78 -13 -78 -47 0 -29 -11 -30 -35 -4 -47 51 -206 77 -270 43z m201 -70 c54 -24 84 -64 90 -120 l6 -50 -45 -12 c-167 -42 -301 20 -267 123 13 41 27 54 77 72 41 14 90 10 139 -13z"/>
 <path d="M2192 4026 c-55 -25 -62 -58 -62 -286 l0 -200 -35 0 c-33 0 -35 -2 -35 -35 0 -33 2 -35 35 -35 l34 0 3 -92 3 -93 40 0 40 0 3 93 3 92 59 0 60 0 0 35 0 35 -60 0 -60 0 0 194 c0 164 3 197 16 210 18 19 49 20 93 5 37 -13 39 -12 47 27 5 25 2 32 -21 42 -44 20 -126 24 -163 8z"/>
 <path d="M3205 4026 c-42 -18 -93 -79 -101 -121 -16 -87 39 -172 128 -196 47 -12 157 -14 219 -4 l42 7 -5 -51 c-12 -124 -148 -165 -283 -86 l-41 24 -17 -29 c-17 -28 -17 -29 11 -48 85 -61 225 -76 308 -34 90 46 106 90 112 305 2 92 8 167 13 167 16 0 10 67 -6 74 -26 10 -66 -13 -78 -43 l-11 -29 -31 24 c-67 51 -192 70 -260 40z m207 -77 c55 -28 78 -63 78 -120 0 -47 -1 -48 -37 -58 -65 -18 -169 -14 -214 9 -47 25 -64 56 -55 103 16 86 124 118 228 66z"/>
 <path d="M3804 4026 c-61 -27 -64 -38 -64 -273 l0 -213 -41 0 c-39 0 -40 -1 -37 -32 3 -30 6 -33 41 -36 l37 -3 0 -95 0 -94 40 0 40 0 0 95 0 95 65 0 65 0 0 35 0 35 -65 0 -65 0 0 179 c0 99 4 191 10 205 12 32 50 42 98 28 41 -13 48 -9 57 30 6 25 4 28 -46 42 -64 19 -94 20 -135 2z"/>
 <path d="M4147 4026 c-51 -19 -117 -63 -117 -79 0 -7 7 -23 16 -35 l15 -22 33 25 c50 38 100 55 164 55 95 0 145 -45 128 -114 -6 -26 -43 -44 -170 -81 -120 -36 -156 -69 -156 -147 0 -55 14 -86 55 -120 26 -23 108 -48 155 -48 54 0 135 27 170 56 l30 26 -21 29 -21 29 -29 -25 c-81 -67 -246 -52 -257 25 -9 61 9 75 153 121 145 45 175 72 175 155 0 60 -27 107 -79 138 -45 26 -188 33 -244 12z"/>
 <path d="M747 3757 c-64 -149 -117 -275 -117 -279 0 -5 17 -8 39 -8 l38 0 98 230 c53 127 98 230 100 230 2 0 23 -51 48 -114 l46 -113 -45 -108 c-24 -59 -44 -112 -44 -117 0 -5 16 -8 36 -6 36 3 37 5 67 81 17 43 33 74 37 70 4 -4 20 -41 35 -80 l28 -73 38 0 39 0 -19 48 c-10 26 -31 76 -45 111 -14 36 -26 70 -26 76 0 14 79 206 89 217 3 4 49 -96 101 -222 l95 -230 42 0 c36 0 41 3 36 17 -4 10 -57 135 -118 278 l-112 260 -39 3 -39 2 -54 -131 c-40 -97 -56 -127 -62 -113 -3 11 -28 70 -54 132 l-47 112 -37 0 -36 0 -118 -273z"/>
 <path d="M2480 3650 l0 -380 40 0 40 0 0 211 c0 116 3 209 8 207 4 -1 95 -95 202 -208 l194 -205 50 -3 c60 -4 70 -19 -117 181 -76 81 -137 152 -135 157 2 5 72 99 156 209 83 110 152 202 152 206 0 3 -21 5 -47 3 l-46 -3 -140 -183 -140 -183 -68 73 -68 73 -1 113 0 112 -40 0 -40 0 0 -380z"/>
 <path d="M1422 2968 l-22 -24 0 -516 c0 -486 1 -516 18 -531 17 -16 89 -17 825 -17 l806 0 21 22 c20 21 20 32 20 533 0 446 -2 513 -16 533 -24 35 -71 29 -138 -18 -32 -23 -201 -137 -377 -256 l-318 -215 -378 252 c-208 139 -387 254 -398 257 -12 2 -29 -6 -43 -20z m717 -580 c46 -32 95 -58 108 -58 15 0 155 88 359 225 184 124 337 225 339 225 3 0 5 -173 5 -385 l0 -385 -710 0 -710 0 0 395 0 394 263 -176 c144 -97 300 -203 346 -235z"/>
 <path d="M1450 1753 c-47 -18 -50 -29 -50 -180 l0 -143 -273 0 c-230 0 -276 -2 -295 -16 -29 -20 -30 -74 -1 -100 19 -18 42 -19 295 -22 l274 -3 0 -59 0 -60 -303 0 c-291 0 -304 -1 -325 -20 -27 -26 -28 -60 -3 -91 l19 -24 306 -3 306 -3 0 -485 c0 -471 1 -485 20 -504 25 -25 64 -26 88 0 10 11 99 136 198 279 l179 260 355 0 355 0 193 -274 c106 -150 200 -276 208 -279 28 -11 45 -6 69 19 l25 24 0 480 0 480 304 3 c283 3 305 4 325 22 29 26 28 80 -1 100 -19 14 -67 16 -325 16 l-303 0 0 65 0 65 258 0 c290 0 305 3 310 60 2 19 -4 44 -12 55 -14 19 -28 20 -285 23 l-271 3 0 133 c0 117 -2 137 -19 157 l-19 24 -794 2 c-436 1 -800 -1 -808 -4z m1500 -223 l0 -90 -130 0 c-142 0 -183 -11 -193 -51 -8 -32 9 -68 38 -79 15 -6 85 -10 156 -10 l129 0 0 -65 0 -65 -177 0 -177 0 -161 160 c-135 134 -166 160 -191 160 -24 0 -55 -26 -189 -160 l-160 -160 -182 0 -183 0 0 59 0 60 144 3 c125 3 147 6 165 22 27 24 27 70 1 96 -18 18 -33 20 -165 20 l-145 0 0 95 0 95 710 0 710 0 0 -90z m-567 -340 c75 -77 148 -145 162 -150 14 -6 112 -10 216 -10 l189 0 0 -362 0 -363 -42 60 c-24 33 -86 120 -138 195 -53 74 -107 140 -120 147 -31 16 -784 19 -823 4 -16 -7 -63 -66 -133 -168 -59 -87 -120 -176 -136 -197 l-28 -40 0 362 0 362 189 0 c104 0 200 4 213 9 13 5 86 72 163 150 76 78 142 141 146 141 4 0 68 -63 142 -140z"/>
 </g>

</svg>